<?xml version="1.0" encoding="UTF-8"?>
<svg version="1.1" xmlns="http://www.w3.org/2000/svg" width="500" height="500">
<path d="M0 0 C1.43791516 0.14168137 2.8753237 0.28851043 4.3125 0.4375 C5.11300781 0.51871094 5.91351563 0.59992188 6.73828125 0.68359375 C9 1 9 1 12 2 C13.38565722 2.09373785 14.77534936 2.13365659 16.16416454 2.1386652 C17.01660281 2.14413964 17.86904108 2.14961409 18.74731082 2.15525442 C19.68407273 2.15623253 20.62083464 2.15721064 21.58598328 2.15821838 C23.07828302 2.16562535 23.07828302 2.16562535 24.60073024 2.17318195 C27.94955736 2.18859582 31.29836526 2.19692811 34.6472168 2.20532227 C37.04171926 2.21489773 39.43622003 2.22490761 41.83071899 2.23532104 C46.99373851 2.25679328 52.15675949 2.2752306 57.31979942 2.29092598 C64.78471774 2.31362417 72.24960769 2.34176707 79.71450195 2.37124526 C91.82536183 2.41892179 103.9362333 2.46218581 116.04711914 2.50268555 C127.81275332 2.54204016 139.57837719 2.5834663 151.34399414 2.62768555 C152.0690459 2.63040982 152.79409765 2.63313409 153.54112067 2.63594092 C157.17843821 2.64962039 160.8157556 2.66334066 164.45307291 2.67708123 C194.63536164 2.79104697 224.81767112 2.89704513 255 3 C255 24.12 255 45.24 255 67 C196.59 67 138.18 67 78 67 C78 96.04 78 125.08 78 155 C79.65 154.67 81.3 154.34 83 154 C85.09741383 153.92382084 87.19711537 153.90190296 89.29585266 153.91770935 C90.56484909 153.92474884 91.83384552 153.93178833 93.14129639 153.93904114 C94.53991789 153.95202192 95.93853847 153.96510202 97.3371582 153.97827148 C98.81570645 153.98842007 100.29425789 153.99811311 101.77281189 154.00738525 C105.78069644 154.0338082 109.78850652 154.06659944 113.79633355 154.10053515 C117.98701405 154.13493576 122.17773435 154.1634781 126.36845398 154.19264221 C134.30149883 154.24873995 142.23449383 154.31010525 150.16748446 154.37336355 C159.20004746 154.44513341 168.23265031 154.51103024 177.26526129 154.57643402 C195.84356113 154.71108825 214.42178646 154.85389225 233 155 C233 175.46 233 195.92 233 217 C181.85 217 130.7 217 78 217 C78 250.99 78 284.98 78 320 C137.73 320 197.46 320 259 320 C259 341.12 259 362.24 259 384 C226.27673996 384.02202628 193.55348708 384.04049779 160.83022187 384.05106533 C156.97104308 384.05231611 153.11186431 384.05361042 149.25268555 384.05493164 C148.48435986 384.05519395 147.71603418 384.05545626 146.92442589 384.05572652 C134.4673358 384.06008338 122.0102503 384.06797101 109.55316294 384.0771528 C96.78062824 384.0864889 84.00809595 384.09205552 71.23555797 384.09408849 C63.34782905 384.09546381 55.4601131 384.09981488 47.57238816 384.10791647 C41.53434897 384.11380406 35.49632106 384.11445907 29.45827866 384.11310768 C26.97374707 384.11338421 24.48921503 384.11539199 22.00468636 384.11920547 C18.6287618 384.1241357 15.25289409 384.12300078 11.87696838 384.12025452 C10.87990751 384.12316736 9.88284664 384.1260802 8.85557181 384.12908131 C7.95834809 384.12709026 7.06112438 384.12509921 6.13671207 384.12304783 C5.3563868 384.12342755 4.57606152 384.12380727 3.77209002 384.1241985 C2 384 2 384 1 383 C0.90220899 381.01400162 0.87628738 379.02446001 0.87695217 377.03605556 C0.87496112 375.73127457 0.87297007 374.42649358 0.87091869 373.08217376 C0.87377229 371.61520205 0.8767179 370.14823052 0.87974548 368.68125916 C0.87930992 367.13772058 0.87843528 365.59418208 0.87715632 364.05064398 C0.87490849 359.78870537 0.87893655 355.52679165 0.88393438 351.26485622 C0.88823459 346.67655553 0.88679276 342.08825636 0.8860321 337.49995422 C0.88550659 329.54363101 0.8886562 321.58731596 0.89426994 313.6309948 C0.90238131 302.12735071 0.90499979 290.6237106 0.90625793 279.12006397 C0.90844903 260.45821423 0.91511066 241.79636885 0.92456055 223.13452148 C0.93373319 205.00138369 0.94081474 186.86824707 0.94506836 168.73510742 C0.94533108 167.6182338 0.94559381 166.50136018 0.94586449 165.3506419 C0.94716949 159.74786989 0.9484332 154.14509788 0.94967639 148.54232585 C0.96005079 102.02821422 0.97767066 55.51410733 1 9 C0.34 9 -0.32 9 -1 9 C-1.125 2.25 -1.125 2.25 0 0 Z " fill="#030303" transform="translate(134,72)"/>
<path d="M0 0 C1.43791516 0.14168137 2.8753237 0.28851043 4.3125 0.4375 C5.11300781 0.51871094 5.91351563 0.59992188 6.73828125 0.68359375 C9 1 9 1 12 2 C13.38565722 2.09373785 14.77534936 2.13365659 16.16416454 2.1386652 C17.01660281 2.14413964 17.86904108 2.14961409 18.74731082 2.15525442 C19.68407273 2.15623253 20.62083464 2.15721064 21.58598328 2.15821838 C23.07828302 2.16562535 23.07828302 2.16562535 24.60073024 2.17318195 C27.94955736 2.18859582 31.29836526 2.19692811 34.6472168 2.20532227 C37.04171926 2.21489773 39.43622003 2.22490761 41.83071899 2.23532104 C46.99373851 2.25679328 52.15675949 2.2752306 57.31979942 2.29092598 C64.78471774 2.31362417 72.24960769 2.34176707 79.71450195 2.37124526 C91.82536183 2.41892179 103.9362333 2.46218581 116.04711914 2.50268555 C127.81275332 2.54204016 139.57837719 2.5834663 151.34399414 2.62768555 C152.0690459 2.63040982 152.79409765 2.63313409 153.54112067 2.63594092 C157.17843821 2.64962039 160.8157556 2.66334066 164.45307291 2.67708123 C194.63536164 2.79104697 224.81767112 2.89704513 255 3 C255 24.12 255 45.24 255 67 C196.59 67 138.18 67 78 67 C78 96.04 78 125.08 78 155 C77.67 155 77.34 155 77 155 C77 125.63 77 96.26 77 66 C135.41 66 193.82 66 254 66 C254 45.54 254 25.08 254 4 C170.84 4 87.68 4 2 4 C2 6.31 2 8.62 2 11 C1.67 10.34 1.34 9.68 1 9 C0.34 9 -0.32 9 -1 9 C-1.125 2.25 -1.125 2.25 0 0 Z " fill="#919191" transform="translate(134,72)"/>
<path d="M0 0 C1.43791516 0.14168137 2.8753237 0.28851043 4.3125 0.4375 C5.11300781 0.51871094 5.91351563 0.59992188 6.73828125 0.68359375 C9 1 9 1 12 2 C14.3452566 2.11846992 16.69367153 2.17703219 19.04174805 2.20532227 C19.75419678 2.21522186 20.46664551 2.22512146 21.20068359 2.23532104 C23.55432824 2.266895 25.90799306 2.29167719 28.26171875 2.31640625 C29.89411441 2.33697933 31.52650479 2.35797589 33.15888977 2.37937927 C37.45455646 2.43456344 41.75027094 2.48398883 46.04602051 2.53222656 C50.42981212 2.58246827 54.81353438 2.6381404 59.19726562 2.69335938 C67.79811843 2.80089625 76.39902928 2.90235114 85 3 C85 3.33 85 3.66 85 4 C57.61 4 30.22 4 2 4 C2 6.31 2 8.62 2 11 C1.67 10.34 1.34 9.68 1 9 C0.34 9 -0.32 9 -1 9 C-1.125 2.25 -1.125 2.25 0 0 Z " fill="#3F3F3F" transform="translate(134,72)"/>
<path d="M0 0 C1.43836751 0.11458693 2.87570966 0.24209116 4.3125 0.375 C5.51326172 0.47941406 5.51326172 0.47941406 6.73828125 0.5859375 C9 1 9 1 12 3 C8.7 3 5.4 3 2 3 C2 5.64 2 8.28 2 11 C1.67 10.34 1.34 9.68 1 9 C0.34 9 -0.32 9 -1 9 C-1.125 2.25 -1.125 2.25 0 0 Z " fill="#FDFDFD" transform="translate(134,72)"/>
</svg>
