<?xml version="1.0" encoding="UTF-8"?>
<svg version="1.1" xmlns="http://www.w3.org/2000/svg" width="500" height="500">
<path d="M0 0 C116.49 0 232.98 0 353 0 C353 19.47 353 38.94 353 59 C336.5 59 320 59 303 59 C303 149.09 303 239.18 303 332 C279.24 332 255.48 332 231 332 C231 293.06 231 254.12 231 214 C198.66 214 166.32 214 133 214 C132.67 221.26 132.34 228.52 132 236 C130.22509143 246.27578644 127.3065802 252.65564888 119.25 259.3125 C108.82507149 266.47719806 95.48176581 266.53383924 83.37109375 264.34375 C58.50344719 257.40115794 36.78319587 235.71067249 24.15625 213.80078125 C17.98330346 201.98443015 14.5714216 190.18757505 17.76171875 176.8046875 C20.74517214 168.14913497 24.28825357 162.74348641 32.37890625 158.2578125 C41.47367864 153.89340608 49.53992048 155 60 155 C60 123.32 60 91.64 60 59 C40.2 59 20.4 59 0 59 C0 39.53 0 20.06 0 0 Z M133 59 C133 90.68 133 122.36 133 155 C165.34 155 197.68 155 231 155 C231 123.32 231 91.64 231 59 C198.66 59 166.32 59 133 59 Z " fill="#020202" transform="translate(77,124)"/>
</svg>
