<?xml version="1.0" encoding="UTF-8"?>
<svg version="1.1" xmlns="http://www.w3.org/2000/svg" width="500" height="500">
<path d="M0 0 C1.29657121 -0.00298657 1.29657121 -0.00298657 2.61933577 -0.00603348 C3.57457432 -0.00312064 4.52981286 -0.0002078 5.51399803 0.00279331 C6.52434431 0.00193889 7.5346906 0.00108446 8.57565343 0.00020415 C11.9828842 -0.00145139 15.39006643 0.00407193 18.79729271 0.00952244 C21.23105429 0.00980432 23.66481596 0.00964656 26.0985775 0.00907993 C31.34947878 0.00885174 36.60036896 0.01169992 41.85126686 0.01731777 C49.44324078 0.02543503 57.03520868 0.02804823 64.62718646 0.02930576 C76.94382033 0.03149593 89.26044759 0.03815505 101.57707787 0.04760838 C113.54354888 0.05678341 125.51001811 0.0638638 137.47649193 0.06811619 C138.21375439 0.06837891 138.95101685 0.06864164 139.7106206 0.06891232 C143.40914492 0.07021733 147.10766925 0.07148104 150.80619359 0.07272422 C181.50293944 0.08309572 212.19967316 0.10153343 242.8964138 0.12304783 C242.8964138 21.24304783 242.8964138 42.36304783 242.8964138 64.12304783 C184.4864138 64.12304783 126.0764138 64.12304783 65.8964138 64.12304783 C65.8964138 93.16304783 65.8964138 122.20304783 65.8964138 152.12304783 C117.0464138 152.12304783 168.1964138 152.12304783 220.8964138 152.12304783 C220.8964138 172.58304783 220.8964138 193.04304783 220.8964138 214.12304783 C169.7464138 214.12304783 118.5964138 214.12304783 65.8964138 214.12304783 C65.8964138 248.11304783 65.8964138 282.10304783 65.8964138 317.12304783 C125.6264138 317.12304783 185.3564138 317.12304783 246.8964138 317.12304783 C246.8964138 338.24304783 246.8964138 359.36304783 246.8964138 381.12304783 C162.0864138 381.12304783 77.2764138 381.12304783 -10.1035862 381.12304783 C-11.26303478 331.26675896 -11.26303478 331.26675896 -11.23624992 308.18999577 C-11.2321037 303.56419452 -11.23507715 298.93840884 -11.23829079 294.31260777 C-11.24265182 286.74317433 -11.24181762 279.173751 -11.23887815 271.60431723 C-11.23659093 265.45362011 -11.23632566 259.30292577 -11.23740196 253.15222836 C-11.2375552 252.26669788 -11.23770843 251.38116741 -11.2378663 250.46880269 C-11.2381861 248.6686005 -11.23851032 246.86839832 -11.2388389 245.06819614 C-11.24166368 228.34789289 -11.23845135 211.6275952 -11.23303853 194.90729287 C-11.22854575 180.58410754 -11.22937243 166.26093029 -11.23395729 151.93774509 C-11.23930939 135.21034303 -11.24141779 118.48294574 -11.23834503 101.75554293 C-11.23802653 99.97380046 -11.23771216 98.19205799 -11.23740196 96.41031551 C-11.23717055 95.09596551 -11.23717055 95.09596551 -11.23693446 93.75506297 C-11.23607325 87.59926386 -11.23752306 81.44346782 -11.23988152 75.28766918 C-11.24268554 67.80688175 -11.24192733 60.32610482 -11.23660077 52.84531859 C-11.23397617 49.03449633 -11.23293808 45.22369158 -11.23624992 41.41286945 C-11.23978599 37.28193002 -11.23555995 33.1510347 -11.23056984 29.02009678 C-11.23280056 27.81984531 -11.23503128 26.61959384 -11.2373296 25.38297111 C-11.22359862 19.53271273 -10.99475168 13.90751267 -10.1035862 8.12304783 C-10.7635862 8.12304783 -11.4235862 8.12304783 -12.1035862 8.12304783 C-11.4435862 6.47304783 -10.7835862 4.82304783 -10.1035862 3.12304783 C-8.7835862 3.12304783 -7.4635862 3.12304783 -6.1035862 3.12304783 C-6.1035862 2.46304783 -6.1035862 1.80304783 -6.1035862 1.12304783 C-3.81182771 -0.02283141 -2.54706959 -0.00129031 0 0 Z " fill="#FAFAFA" transform="translate(146.1035861968994,74.87695217132568)"/>
</svg>
