<?xml version="1.0" encoding="UTF-8"?>
<svg version="1.1" xmlns="http://www.w3.org/2000/svg" width="500" height="500">
<path d="M0 0 C116.49 0 232.98 0 353 0 C353 19.47 353 38.94 353 59 C336.17 59 319.34 59 302 59 C302 149.09 302 239.18 302 332 C278.24 332 254.48 332 230 332 C230 293.06 230 254.12 230 214 C197.66 214 165.32 214 132 214 C132 219.94 132 225.88 132 232 C130.03564798 243.98254733 128.36672753 252.2768992 118.30859375 259.52734375 C108.51207018 265.77656437 96.28851664 266.61490457 84.98632812 264.64990234 C59.82489281 258.70721944 38.64352536 237.87595413 25.234375 216.7265625 C17.80937879 204.58502029 14.17148015 190.88397952 17.1796875 176.71875 C19.4109279 169.32378181 23.23082542 162.97189492 30 159 C39.61045397 154.78275438 48.31677192 154.66770175 59 154 C59.33 122.65 59.66 91.3 60 59 C41.00208502 59.36851207 41.00208502 59.36851207 22.00439453 59.74829102 C19.63054141 59.79223957 17.25668115 59.83580458 14.8828125 59.87890625 C13.01967407 59.9189679 13.01967407 59.9189679 11.11889648 59.95983887 C9.94157959 59.98026245 8.7642627 60.00068604 7.55126953 60.02172852 C6.01238571 60.05170677 6.01238571 60.05170677 4.44241333 60.08229065 C2 60 2 60 0 59 C0 39.53 0 20.06 0 0 Z M132 59 C131.979375 74.654375 131.95875 90.30875 131.9375 106.4375 C131.928396 111.38806396 131.91929199 116.33862793 131.90991211 121.43920898 C131.90656854 125.86066402 131.90656854 125.86066402 131.90455627 130.28211975 C131.90301646 132.25791143 131.89949078 134.23370214 131.89442444 136.20948792 C131.88714904 139.19493249 131.88609251 142.18031943 131.88647461 145.16577148 C131.8828765 146.05216781 131.87927839 146.93856413 131.87557125 147.85182095 C131.49582764 151.73768994 131.49582764 151.73768994 133 155 C135.94172433 155.10592717 138.86009805 155.14677624 141.80249023 155.14526367 C142.72601288 155.14862228 143.64953552 155.1519809 144.6010437 155.15544128 C147.67024053 155.16498199 150.73938299 155.16689594 153.80859375 155.16796875 C155.93229699 155.17117912 158.056 155.17454302 160.17970276 155.17805481 C164.63779208 155.18405387 169.095862 155.18589391 173.55395508 155.18530273 C179.27874238 155.18520106 185.0034058 155.1988555 190.72816372 155.21607494 C195.11607947 155.2271696 199.50396504 155.22922273 203.89189339 155.22869301 C206.00309743 155.22987688 208.11430216 155.23432123 210.22549248 155.24202538 C213.17312276 155.25177444 216.12048099 155.24896745 219.06811523 155.24291992 C219.9476738 155.24853943 220.82723236 155.25415894 221.73344421 155.25994873 C226.34591832 155.45190801 226.34591832 155.45190801 230 153 C230.18835768 150.01684547 230.25163223 147.12757915 230.22705078 144.14404297 C230.22741239 142.74606318 230.22741239 142.74606318 230.2277813 141.31984138 C230.22628487 138.29386067 230.21103708 135.26812432 230.1953125 132.2421875 C230.19237309 130.37768675 230.19033202 128.51318437 230.18920898 126.64868164 C230.17870988 119.72409598 230.15078762 112.79954561 230.125 105.875 C230.08375 90.40625 230.0425 74.9375 230 59 C197.66 59 165.32 59 132 59 Z " fill="#FEFEFD" transform="translate(99,124)"/>
<path d="M0 0 C33 0 66 0 100 0 C100 32.34 100 64.68 100 98 C67 98 34 98 0 98 C0 65.66 0 33.32 0 0 Z M1 1 C0.979375 16.654375 0.95875 32.30875 0.9375 48.4375 C0.928396 53.38806396 0.91929199 58.33862793 0.90991211 63.43920898 C0.90656854 67.86066402 0.90656854 67.86066402 0.90455627 72.28211975 C0.90301646 74.25791143 0.89949078 76.23370214 0.89442444 78.20948792 C0.88714904 81.19493249 0.88609251 84.18031943 0.88647461 87.16577148 C0.8828765 88.05216781 0.87927839 88.93856413 0.87557125 89.85182095 C0.49582764 93.73768994 0.49582764 93.73768994 2 97 C4.94172433 97.10592717 7.86009805 97.14677624 10.80249023 97.14526367 C11.72601288 97.14862228 12.64953552 97.1519809 13.6010437 97.15544128 C16.67024053 97.16498199 19.73938299 97.16689594 22.80859375 97.16796875 C24.93229699 97.17117912 27.056 97.17454302 29.17970276 97.17805481 C33.63779208 97.18405387 38.095862 97.18589391 42.55395508 97.18530273 C48.27874238 97.18520106 54.0034058 97.1988555 59.72816372 97.21607494 C64.11607947 97.2271696 68.50396504 97.22922273 72.89189339 97.22869301 C75.00309743 97.22987688 77.11430216 97.23432123 79.22549248 97.24202538 C82.17312276 97.25177444 85.12048099 97.24896745 88.06811523 97.24291992 C88.9476738 97.24853943 89.82723236 97.25415894 90.73344421 97.25994873 C95.34591832 97.45190801 95.34591832 97.45190801 99 95 C99.18835768 92.01684547 99.25163223 89.12757915 99.22705078 86.14404297 C99.22741239 84.74606318 99.22741239 84.74606318 99.2277813 83.31984138 C99.22628487 80.29386067 99.21103708 77.26812432 99.1953125 74.2421875 C99.19237309 72.37768675 99.19033202 70.51318437 99.18920898 68.64868164 C99.17870988 61.72409598 99.15078762 54.79954561 99.125 47.875 C99.08375 32.40625 99.0425 16.9375 99 1 C66.66 1 34.32 1 1 1 Z " fill="#D4CDCA" transform="translate(230,182)"/>
</svg>
